<?xml version="1.0" encoding="utf-8"?>
<!-- Generator: Adobe Illustrator 17.0.0, SVG Export Plug-In . SVG Version: 6.00 Build 0)  -->
<!DOCTYPE svg PUBLIC "-//W3C//DTD SVG 1.1//EN" "http://www.w3.org/Graphics/SVG/1.1/DTD/svg11.dtd">
<svg version="1.1" xmlns="http://www.w3.org/2000/svg" xmlns:xlink="http://www.w3.org/1999/xlink" x="0px" y="0px" width="400px"
	 height="400px" viewBox="0 0 400 400" enable-background="new 0 0 400 400" xml:space="preserve">
<g id="Base">
	<rect x="0.5" y="0.5" fill="#FF9CF8" width="400" height="400"/>
</g>
<g id="Art">
	<g>
		<path fill="#FFFFFF" d="M65.53,133.701c4.313-3.921,4.277-9.98,1.901-15.049c-3.779-8.062,2.512-16.03,12.198-14.416
			c0.951,0.158,0.696,0.35,1.267-0.792c5.265-10.529,26.712-7.242,32.95,7.762c6.278,15.101-8.079,27.247-20.594,36.594
			c-11.356,8.481-20.594,16-18.345,27.245c2.082,10.412,15.772,14.7,24.523,10.933c27.523-11.85,47.524-12.515,76.514,8.079
			c2.867,2.037,2.879,2.841,3.644,4.911c5.294,14.325,13.505,21.503,27.881,25.742c1.699,0.501,1.587,1.346,1.743,2.931
			c0.573,5.842,6.239,11.808,17.267,14.867c0.579,0.16,0.236,0.489-0.436,1.093c-1.98,1.782-1.043,6.361,1.624,8.435
			c1.782,1.386,2.297,1.743,3.406,2.218c1.109,0.475,0.317,1.743-0.792,2.376c-1.109,0.634-1.267,0.792-3.802,0
			c-2.535-0.792-29.94-11.881-39.128-18.693c-13.884-10.293-18.835-13.309-25.188-12.119c-1.784,0.335-1.705,1.372,0.079,1.584
			c8,0.95,15.324,10.484,14.891,17.267c-0.237,3.723-2.772,8.317-10.693,12.435c-3.008,1.564-2.198,5.366,0.634,8.079
			c3.802,3.644,10.614,9.822,11.564,10.772c0.951,0.951,1.426,1.267,2.851,0.317c1.426-0.951,9.206-5.155,13.782-3.01
			c5.069,2.376,5.544,8.871,4.119,9.98c0.475,2.059,0.99,4.832-1.109,6.337c-0.198-2.654-0.832-3.168-2.099-3.802
			c-2.852,0.317-4.119,0.594-5.069,2.178c0.634,1.743-0.159,4.911-1.703,5.742c-0.119-1.861-0.198-3.049-1.228-4.039
			c-2.535-0.475-2.574-0.238-3.525-0.238c-2.06,1.267-3.485,2.693-4.119,3.327c0,1.901-0.317,3.802-2.218,4.911
			c0-1.743-0.159-2.851-0.951-4.119c-3.802-3.485-6.97-5.228-10.772-4.752c-1.609,0.201-2.601,0.161-3.485-1.426
			c-5.386-9.663-16.874-18.918-22.495-22.495c-1.743-1.109-2.866-3.615,0.317-4.594c6.178-1.901,8.38-6.843,6.337-10.931
			c-0.634-1.267,0.42-1.459,1.505-2.614c5.277-5.618,8.655-9.592,8.317-17.029c-0.396-8.713,2.218-13.861,10.218-16.554
			c1.568-0.528,1.267-1.347-0.792-0.792c-8.943,2.408-11.287,6.638-11.802,16.554c-0.634,12.198-5.985,16.552-32.475,25.029
			c-3.96,1.267-19.754,8.023-22.02,9.03c-1.426,0.634-1.532,0.912-0.95,1.743c1.109,1.584,1.901,8.238,4.119,11.247
			c2.218,3.01,10.139,13.148,11.564,14.257c1.426,1.109,1.964,1.247,3.802,0.317c13.465-6.812,22.148-1.721,21.544,8.238
			c1.743,2.693,2.455,5.782,1.109,7.525c-0.871-2.059-1.901-3.485-2.851-3.802c-1.505,0.634-5.228,1.98-6.337,1.901
			c1.505,2.535,1.347,6.099-0.951,7.366c0.159-2.455-0.475-2.376-0.792-3.485c-2.139-0.475-5.069-0.792-5.782-1.347
			c-1.743,2.297-1.822,3.723-2.851,4.673c0.158,1.901-0.317,3.881-1.267,4.911c-0.555-2.376-1.381-3.067-2.535-3.644
			c-1.426-0.713-3.951-1.517-4.99-2.297c-2.285-1.714-3.3,1.29-8.317-4.594c-6.416-7.525-20.99-31.287-26.217-39.366
			c-3.133-4.841-5.497-9.118,0.95-11.406c19.643-6.97,39.752-25.611,26.138-48.95c-1.109-1.901-1.901-3.644-1.901-4.752
			c0-1.109,0.158-2.081-2.218-2.059c-17.584,0.158-33.45-4.314-36.435-21.227c-1.901-10.772,5.873-23.865,21.227-35.009
			c15.364-11.151,22.286-18.261,19.643-28.831c-2.421-9.682-13.862-12.207-20.752-6.178c-1.267,1.109-2.625,1.979-1.109,4.119
			c5.077,7.167,3.247,12.984-5.465,16.31c-1.812,0.692-3.881,1.907-5.148,3.175c-0.871,0.871-1.822,1.109-0.792-0.792
			c0.658-1.215,1.545-2.789,3.327-3.853c3.093-1.848,4.368-4.464,2.955-8.871c-0.744-2.321-0.193-3.881,1.39-5.273
			c1.072-0.943,0.589-1.57-0.781-0.696c-2.24,1.429-2.551,3.604-1.755,6.51c1.143,4.176-0.311,5.969-2.589,7.242
			c-1.805,1.008-1.503,0.779-1.177-0.708c0.299-1.365,0.225-3.672-0.486-6.155c-1.41-4.921,0.183-9.209,5.057-9.899
			c0.894-0.127,1.663-1.03,0-0.95c-4.819,0.229-8.069,4.174-6.377,10.78c1.484,5.792,1.304,11.18-6.296,15.754
			C64.329,135.85,64.659,134.493,65.53,133.701z"/>
		<path fill="#FFFFFF" d="M142.202,97.582c7.187,32.339,24.143,67.615,69.702,83.325c35.37,12.197,63.464,34.425,52.593,57.979
			c-1.901,4.119-2.218,6.653,1.584,10.772c3.802,4.119,25.663,27.881,28.831,30.099c3.168,2.218,3.328,1.554,4.752-0.475
			c5.228-7.445,14.294-13.221,23.762-8.713c5.861,0.634,8.871,5.861,6.495,9.346c-1.03-2.772-4.436-4.752-7.287-5.069
			c-3.643-1.901-6.522,0.503-6.97,3.643c-0.158,1.109,0,1.901,2.06,1.743c7.838-0.603,16.95,10.455,15.921,19.643
			c1.03,3.644-1.505,8.317-6.653,7.445c2.522-1.78,3.546-4.885,2.851-6.97c-2.218-6.416-6.505-7.649-13.069-6.337
			c-1.584,0.317-2.059,0.95-0.317,1.584c4.586,1.668,8.985,8.893,4.436,16.475c-0.317,3.327-3.802,5.544-7.287,4.356
			c2.693-1.98,3.802-2.772,3.802-4.356c0.079-3.168-1.474-3.486-2.139-4.911c-4.832-2.614-13.732-2.697-16.792-7.287
			c-0.475-0.713-0.713-1.743-2.297-0.238c-3.057,2.904-10.065,2.218-16.317,0c-2.455-0.871-3.247-0.238-4.198,0.951
			c-0.951,1.188-2.852,2.693-3.96,3.01c-0.951,3.406-0.475,6.495,1.267,8.475c-3.247-0.951-5.307-6.416-4.752-9.267
			c-2.772-9.267-3.069-13.054,10.614-14.574c0.713-0.079,1.145-0.266-0.079-1.346c-5.386-4.752-21.227-18.851-28.514-20.594
			c-5.608-1.341-8.174-4.943-10.138-8.871c-1.109-2.218-1.543-2.202-4.594-3.01c-10.772-2.851-11.249-11.406-4.752-11.406
			c1.426,0,2.55-0.573-0.158-0.951c-6.812-0.95-15.525-5.861-18.059-9.822c-2.805-4.383-2.079-7.683,1.822-7.683
			c2.501,0,6.687,0.201,11.485,4.04c1.292,1.033,2.311,0.544,0.475-1.03c-3.881-3.327-7.54-4.419-11.723-4.515
			c-2.339-0.054-4.331,0.663-6.684,0.042c-12.168-3.21-22.455-11.963-26.039-23.171c-0.539-1.687-0.528-3.425,2.307-1.743
			c10.07,5.979,23.92,11.723,34.059,15.683c2.007,0.784,2.517-0.591,0.475-1.426c-39.128-16-69.302-31.191-77.781-65.108
			c-1.454-5.818-0.842-9.248,2.535-2.693c13.465,26.138,41.821,42.455,70.494,52.256c2.445,0.836,3.627-0.486,0.159-1.722
			c-36.435-12.99-83.383-39.551-75.405-96.315C139.402,93.979,141.569,94.731,142.202,97.582z"/>
		<path fill="#FFFFFF" d="M320.734,225.422c1.399-1.749,2.852-2.852,7.762-4.436c2.187,0.312,4.435,2.851,5.228,7.762
			c3.485-5.307,0.317-9.98-3.485-12.356c-2.535-3.485-6.653-5.228-11.406-5.069c-1.705,0.057-1.742,0.317-1.584-0.792
			c0.229-1.599,0.792-4.911,5.228-4.911c1.743-0.158,4.673,1.188,6.178,3.327c0.554-3.643-1.607-5.623-5.069-7.445
			c-1.94-3.007-9.429-4.184-12.831-1.267c-1.109,0.951-1.901,0.792-1.901-0.158c0-2.268,0.792-6.336,4.594-8.396
			c2.218-0.317,5.069,1.901,5.069,5.069c3.802-2.693,0.158-8.079-4.436-9.188c-11.247-3.643-16.316,10.614-13.465,27.089
			c0.378,2.185-0.086,4.491-1.267,6.178c-3.327,4.752-9.188,11.564-10.455,13.148c-1.267,1.584-1.109,1.267-2.376,0.792
			c-1.267-0.475-1.743,0-3.327,1.267c-1.584,1.267-5.019,4.133-8.871,7.129c-1.426,1.109-0.475,2.535,1.901,4.436
			c2.376,1.901,7.287,5.386,9.03,6.653c1.742,1.267,4.33,0.881,6.495-1.743c5.228-6.336,10.927-13.652,13.465-15.683
			c1.584-1.267,2.016-1.945,2.693,0c1.267,3.643,6.178,8.713,9.188,10.614c2.156,4.146,7.445,4.198,9.505,0.475
			c-3.96,0.951-6.178-0.475-6.891-2.376c-1.426-2.535-3.564-8.554-2.139-10.297s1.901-4.436,1.742-6.495
			C319.15,226.689,320.101,226.214,320.734,225.422z"/>
		<path fill="#FFFFFF" d="M192.578,115.008c-10.716-7.848-15.189-11.824-22.495-15.841c-4.966-2.731-4.87-6.171,2.218-4.436
			c7.785,1.906,14.276,4.684,17.444,5.635c3.168,0.95,5.367,1.336,7.268,1.652c1.901,0.317,2.699,0.403,0.317-2.851
			c-3.789-5.177-5.28-8.407-7.129-13.148c-1.287-3.3,0.307-3.635,2.535-1.109c4.283,4.856,8.259,9.328,14.415,14.891
			c1.415,1.279,2.339,2.641,4.436,1.901c5.386-1.901,14.535,1.318,18.851,8.871c0.634,1.109,0.639,1.37,1.901,0.634
			c9.505-5.544,34.031,2.82,29.623,22.653c-0.317,1.426-1.749,2.152-1.109-0.158c2.852-10.297-14.719-14.634-22.019-13.307
			c-1.743,0.317-3.485,0.792-1.901,1.426c1.584,0.634,4.594,0.475,6.97,1.584c2.376,1.109,5.069,2.535,6.812,1.426
			s3.168-0.475,1.426,1.584c-1.743,2.059-3.485,3.485-8.238,3.643s-13.328,1.643-18.534,8.237
			c-7.129,9.03-0.951,20.356,23.445,29.861c36.735,14.313,45.206,38.414,36.91,61.227c-1.267,3.485-0.317,3.168-3.168,5.386
			c-2.852,2.218-9.505,8.238-13.307,9.822c-3.802,1.584-3.738,0.401-3.327-2.376c0.317-2.139,0.275-2.735,0.554-3.643
			c0.317-1.03,0.853-1.87,1.188-3.327c3.626-15.764-5.228-36.594-51.326-54.652c-25.821-16-36.118-47.683-22.653-61.623
			C195.824,116.756,194.421,116.358,192.578,115.008z M216.144,118.987c0.064,0.92,1.506,0.834,2.414-0.494
			c1.03-1.505,1.98-2.455,2.931-3.089c1.215-0.81,0.587-1.411-1.188-2.455c-1.347-0.792-2.605-1.298-3.485,0.792
			C216.182,115.245,215.944,116.117,216.144,118.987z M206.597,135.76c-1.584,2.139-2.535,7.445-1.663,10.455
			c0.841,2.907,1.98,1.822,1.663-0.396c-0.317-2.218,0.074-6.714,1.505-8.95C209.306,134.989,208.041,133.812,206.597,135.76z
			 M213.409,142.968c-0.158,1.03-0.079,4.673,0.95,7.049c0.578,1.334,1.863,0.48,1.505-0.634c-0.713-2.218-0.713-4.672-0.713-6.653
			C215.152,141.463,213.568,141.938,213.409,142.968z M197.647,146.215c1.121,4.053,2.47,7.353,4.515,9.584
			c1.07,1.168,2.366,0.662,1.416-0.792c-1.347-2.06-3.079-5.544-4.188-9.822C198.843,143.076,197.14,144.381,197.647,146.215z
			 M220.934,158.888c2.346,1.861,5.496,4.474,6.891,6.178c1.426,1.742,2.376,0.317,1.109-1.109c-1.339-1.507-4.673-4.436-6.574-6.02
			C221.143,156.924,219.824,158.008,220.934,158.888z M213.805,162.453c0.634,0.475,3.01,2.931,4.119,3.723
			c1.109,0.792,1.901-0.158,1.03-1.03c-0.871-0.871-3.075-2.788-4.277-3.881C213.805,160.472,213.172,161.977,213.805,162.453z
			 M211.825,169.344c1.03,0.871,6.099,4.515,7.762,5.069c1.663,0.554,1.93-0.896,0.555-1.584c-2.535-1.267-5.861-3.881-7.445-5.069
			C211.447,166.822,210.446,168.177,211.825,169.344z M240.894,171.245c1.03,0.792,5.586,3.178,6.891,3.96
			c1.584,0.95,1.88-0.636,0.792-1.347c-2.059-1.347-4.803-2.898-6.574-3.96C240.815,169.185,239.864,170.453,240.894,171.245z
			 M229.726,174.334c1.347,0.634,6.178,3.089,7.604,4.119c1.322,0.955,2.438-0.153,1.03-1.267c-1.901-1.505-5.782-3.564-8.079-4.356
			C229.208,172.459,228.379,173.7,229.726,174.334z M231.548,182.254c1.03,0.475,5.861,2.931,7.525,4.277
			c0.837,0.678,2.133-0.521,0.634-1.743c-2.139-1.743-4.943-3.425-7.604-4.04C231.072,180.512,230.518,181.779,231.548,182.254z
			 M247.864,183.126c2.297,0.95,6.174,3.944,7.604,5.148c1.505,1.267,2.45,0.344,1.584-0.792c-1.267-1.663-4.832-4.356-8.238-5.94
			C247.273,180.824,246.489,182.557,247.864,183.126z M259.983,181.066c2.693,1.584,5.624,3.802,7.842,6.416
			c1.089,1.284,2.218,0.871,1.505-0.634c-0.713-1.505-5.069-5.386-8.555-7.208C259.376,178.909,258.688,180.304,259.983,181.066z
			 M262.438,192.868c1.743,2.455,3.406,5.544,3.643,7.762c0.178,1.661,1.925,1.475,1.584-0.317
			c-0.634-3.327-1.822-6.257-3.564-8.317C262.819,190.481,261.713,191.847,262.438,192.868z M253.805,195.244
			c1.505,1.426,3.96,5.307,4.436,7.208c0.275,1.1,1.584,0.871,1.505,0c-0.28-3.085-2.376-6.257-4.752-8.238
			C254.26,193.604,253.022,194.503,253.805,195.244z M276.141,199.997c1.109,1.584,2.297,5.148,2.297,6.891
			c0,1.743,1.534,2.162,1.584,0.079c0.079-3.327-0.606-5.218-2.693-8C276.379,197.7,275.032,198.412,276.141,199.997z
			 M272.26,210.848c0.792,1.347,0.634,5.545,0,6.733c-0.634,1.188,0.833,2.308,1.584,0.554c1.188-2.772,0.713-6.257-0.079-7.841
			C273.052,208.868,271.468,209.501,272.26,210.848z M276.141,230.966c1.901-1.584,2.693-3.01,3.485-5.544
			c0.405-1.294-1.165-1.974-1.505-0.713c-0.554,2.059-1.901,4.198-3.01,5.069C274.002,230.649,275.009,231.91,276.141,230.966z"/>
	</g>
</g>
<g id="Guides">
</g>
</svg>
