<?xml version="1.0" encoding="utf-8"?>
<!-- Generator: Adobe Illustrator 17.0.0, SVG Export Plug-In . SVG Version: 6.00 Build 0)  -->
<!DOCTYPE svg PUBLIC "-//W3C//DTD SVG 1.1//EN" "http://www.w3.org/Graphics/SVG/1.1/DTD/svg11.dtd">
<svg version="1.1" xmlns="http://www.w3.org/2000/svg" xmlns:xlink="http://www.w3.org/1999/xlink" x="0px" y="0px" width="400px"
	 height="400px" viewBox="0 0 400 400" enable-background="new 0 0 400 400" xml:space="preserve">
<g id="Base">
	<rect x="0.5" y="0.5" fill="#66CCCC" width="400" height="400"/>
</g>
<g id="Art">
	<g>
		<path fill="#FFFFFF" d="M152.255,291.022c8.064-1.78,14.159,0.319,17.028,5.896c3.272,6.361-0.351,11.422-12.737,14.762
			c-12.364,3.386-19.663,1.301-22.935-5.06c-3.25-6.317,0.385-10.282,6.021-11.859l1.435,2.788c-4.674,1.304-6.918,4.331-4.856,8.34
			c2.286,4.443,7.739,6.046,18.901,3.004c11.163-3.042,13.836-6.843,11.55-11.286c-2.018-3.922-6.874-5.114-12.972-3.796
			L152.255,291.022z"/>
		<path fill="#FFFFFF" d="M127.072,292.624l-1.435-2.788l31.916-8.65l-6.634-12.896l2.599-0.731l8.069,15.685L127.072,292.624z"/>
		<path fill="#FFFFFF" d="M113.489,266.221l-1.793-3.485l29.785-18.574l1.524,2.964l-8.749,5.271l5.604,10.892l11.348-0.219
			l1.524,2.964L113.489,266.221z M131.949,253.693l-16.954,10.101l0.044,0.087l21.885-0.516L131.949,253.693z"/>
		<path fill="#FFFFFF" d="M105.329,250.359l-1.928-3.747l23.939-20.084l-0.044-0.087l-30.059,8.19l-1.435-2.789l34.515-9.38
			l1.928,3.747l-23.939,20.084l0.045,0.088l30.059-8.191l1.435,2.788L105.329,250.359z"/>
		<path fill="#FFFFFF" d="M106.347,201.787c8.065-1.78,14.16,0.319,17.029,5.896c3.272,6.361-0.351,11.422-12.737,14.763
			c-12.364,3.385-19.663,1.301-22.936-5.061c-3.25-6.317,0.386-10.282,6.021-11.859l1.435,2.788
			c-4.674,1.304-6.918,4.331-4.856,8.34c2.286,4.443,7.739,6.046,18.902,3.003c11.162-3.041,13.836-6.842,11.55-11.285
			c-2.018-3.922-6.874-5.114-12.973-3.796L106.347,201.787z"/>
		<path fill="#FFFFFF" d="M99.386,192.969l-16.361,14.037l-1.523-2.963l13.695-11.507l-20.733-2.172l-1.524-2.963l25.013,2.78
			l13.828-3.753l1.435,2.788L99.386,192.969z"/>
	</g>
	<g>
		<path fill="#FFFFFF" d="M95.33,148.734c-1.659-4.086-4.336-5.405-7.858-3.005c-3.522,2.401-4.379,6.364-3.027,9.653
			c4.015,9.892,15.807-5.082,20.587,6.543c2.634,6.387,0.463,12.077-4.8,15.664c-5.425,3.698-9.761,2.383-12.409-4.113l-0.418-0.961
			l2.591-1.766l0.502,1.258c1.742,4.209,4.841,5.713,8.647,3.119c3.644-2.483,5.357-6.32,3.489-10.976
			c-4.028-9.825-15.75,5.339-20.67-6.664c-2.119-5.198-0.641-10.771,4.379-14.192c5.385-3.67,9.165-2.213,11.576,3.674
			L95.33,148.734z"/>
		<path fill="#FFFFFF" d="M126.181,144.843c2.757,7.786,1.422,14.092-3.76,17.624c-5.911,4.029-11.377,1.054-16.214-10.828
			c-4.878-11.855-3.705-19.355,2.206-23.384c5.871-4.001,10.251-0.879,12.508,4.52l-2.591,1.766
			c-1.867-4.479-5.146-6.334-8.872-3.796c-4.13,2.815-5.051,8.424-0.661,19.128c4.39,10.704,8.489,12.891,12.619,10.077
			c3.644-2.483,4.232-7.45,2.173-13.34L126.181,144.843z"/>
		<path fill="#FFFFFF" d="M142.43,127.009l-11.296,7.699l6.747,16.51l-2.591,1.766l-13.549-33.101l2.591-1.766l5.757,14.102
			l11.296-7.699l-5.757-14.102l2.591-1.766l13.548,33.102l-2.591,1.766L142.43,127.009z"/>
		<path fill="#FFFFFF" d="M150.043,100.593l3.239-2.208l22.091,27.279l-2.753,1.876l-6.307-8.034l-10.122,6.898l1.61,11.235
			l-2.753,1.876L150.043,100.593z M164.743,117.375l-12.105-15.585l-0.081,0.055l3.198,21.656L164.743,117.375z"/>
		<path fill="#FFFFFF" d="M165.106,90.327l14.333-9.768l1.005,2.518l-11.741,8.002l4.947,12.044l10.972-7.478l1.045,2.49
			l-10.972,7.478l5.507,13.561l12.105-8.251l1.045,2.489l-14.697,10.017L165.106,90.327z"/>
		<path fill="#FFFFFF" d="M184.136,77.357l8.624-5.878c4.818-3.284,8.76-1.938,10.891,3.191c1.604,4.006,1.705,8.503-1.807,11.964
			l0.055,0.08c3.743-2.076,5.92-0.535,8.146,4.471l1.545,3.571c0.793,1.772,1.68,3.421,3.222,4.031l-3.036,2.069
			c-1.095-0.736-1.914-2.373-2.679-4.104l-1.21-2.732c-2.546-5.736-4.257-6.941-8.913-3.768l-4.899,3.339l6.202,15.102l-2.591,1.766
			L184.136,77.357z M193.069,91.073l4.454-3.036c4.088-2.787,5.614-6.553,3.83-10.91c-1.672-4.02-4.187-5.448-8.884-2.247
			l-4.737,3.229L193.069,91.073z"/>
	</g>
	<g>
		<polygon fill="none" points="203.65,302.581 321.86,230.404 252.355,114.119 143.436,187.396 		"/>
		<polygon fill="none" points="277.538,97.177 254.1,112.945 323.85,229.638 366.372,240.647 		"/>
		<polygon fill="none" points="276.105,95.61 212.096,42.67 253.022,111.141 		"/>
		<polygon fill="none" points="201.853,303.677 140.703,186.703 251.277,112.315 207.746,39.485 36.581,160.212 129.116,348.091 		
			"/>
		<polygon fill="none" points="323.665,231.763 204.625,304.446 218.405,330.807 365.947,242.707 		"/>
		<polygon fill="none" points="133.483,347.885 216.471,331.641 202.829,305.542 		"/>
		<path fill="#FFFFFF" d="M217.574,333.752l151.607-90.527l0.915-0.548L278.75,95.145l-0.574-0.927l-0.254,0.171L208.874,37.28
			l-0.489-0.816L34.637,159.013l-0.733,0.517l94.346,191.554l0,0 M323.85,229.638L254.1,112.945l23.438-15.768l88.834,143.47
			L323.85,229.638z M321.86,230.404l-118.21,72.177l-61.966-115.185l110.671-73.277L321.86,230.404z M276.105,95.61l-23.083,15.53
			L212.096,42.67L276.105,95.61z M36.581,160.212L207.746,39.485l43.531,72.829l-112.326,74.389l62.902,116.974l-72.737,44.414
			L36.581,160.212z M133.483,347.885l69.345-42.344l13.642,26.1L133.483,347.885z M204.625,304.446l119.04-72.683l42.282,10.944
			l-147.542,88.1L204.625,304.446z"/>
	</g>
</g>
<g id="Guides">
</g>
</svg>
