<?xml version="1.0" encoding="utf-8"?>
<!-- Generator: Adobe Illustrator 17.0.0, SVG Export Plug-In . SVG Version: 6.00 Build 0)  -->
<!DOCTYPE svg PUBLIC "-//W3C//DTD SVG 1.1//EN" "http://www.w3.org/Graphics/SVG/1.1/DTD/svg11.dtd">
<svg version="1.1" xmlns="http://www.w3.org/2000/svg" xmlns:xlink="http://www.w3.org/1999/xlink" x="0px" y="0px" width="400px"
	 height="400px" viewBox="0 0 400 400" enable-background="new 0 0 400 400" xml:space="preserve">
<g id="Base">
	<rect x="0.5" y="0.5" fill="#716D6D" width="400" height="400"/>
</g>
<g id="Art">
	<g>
		<polygon fill="none" points="203.65,302.581 321.86,230.404 252.355,114.119 143.436,187.396 		"/>
		<polygon fill="none" points="277.538,97.177 254.1,112.945 323.85,229.638 366.372,240.647 		"/>
		<polygon fill="none" points="276.105,95.61 212.096,42.67 253.022,111.141 		"/>
		<polygon fill="none" points="201.853,303.677 140.703,186.703 251.277,112.315 207.746,39.485 36.581,160.212 129.116,348.091 		
			"/>
		<polygon fill="none" points="323.665,231.763 204.625,304.446 218.405,330.807 365.947,242.707 		"/>
		<polygon fill="none" points="133.483,347.885 216.471,331.641 202.829,305.542 		"/>
		<path fill="#CCFF33" d="M217.574,333.752l151.607-90.527l0.915-0.548L278.75,95.145l-0.574-0.927l-0.254,0.171L208.874,37.28
			l-0.489-0.816L34.637,159.013l-0.733,0.517l94.346,191.554l0,0 M323.85,229.638L254.1,112.945l23.438-15.768l88.834,143.47
			L323.85,229.638z M321.86,230.404l-118.21,72.177l-61.966-115.185l110.671-73.277L321.86,230.404z M276.105,95.61l-23.083,15.53
			L212.096,42.67L276.105,95.61z M36.581,160.212L207.746,39.485l43.531,72.829l-112.326,74.389l62.902,116.974l-72.737,44.414
			L36.581,160.212z M133.483,347.885l69.345-42.344l13.642,26.1L133.483,347.885z M204.625,304.446l119.04-72.683l42.282,10.944
			l-147.542,88.1L204.625,304.446z"/>
	</g>
</g>
<g id="Guides">
</g>
</svg>
