<?xml version="1.0" encoding="utf-8"?>
<!-- Generator: Adobe Illustrator 17.0.0, SVG Export Plug-In . SVG Version: 6.00 Build 0)  -->
<!DOCTYPE svg PUBLIC "-//W3C//DTD SVG 1.1//EN" "http://www.w3.org/Graphics/SVG/1.1/DTD/svg11.dtd">
<svg version="1.1" xmlns="http://www.w3.org/2000/svg" xmlns:xlink="http://www.w3.org/1999/xlink" x="0px" y="0px" width="130px"
	 height="760px" viewBox="0 0 130 760" enable-background="new 0 0 130 760" xml:space="preserve">
<g id="Base">
</g>
<g id="Art">
</g>
<g id="Text">
	<g>
		<path fill="#FFFFFF" d="M48.309,34.758c-7.26-1.54-10.891,1.54-10.891,8.69v7.479l22.66,4.84v-6.6
			C60.078,41.578,56.778,36.518,48.309,34.758z"/>
		<polygon fill="#FFFFFF" points="74.709,600.26 39.398,600.369 39.398,600.59 74.709,615.66 		"/>
		<polygon fill="#FFFFFF" points="39.398,156.307 74.709,171.377 74.709,155.978 39.398,156.087 		"/>
		<path fill="#FFFFFF" d="M0,0v760h130V0H0z M25.759,34.978c0-12.979,6.819-19.47,20.239-16.61
			c10.45,2.311,17.49,7.921,19.36,17.271h0.22c1.431-10.45,7.37-10.89,23.98-7.48c8.25,1.54,12.54,2.091,14.08-0.55l0.66,0.11v17.16
			c-2.2,1.1-5.17,0.77-8.25,0.22l-15.07-2.75c-6.16-1.1-9.899,0.88-9.899,7.26v8.471l33.22,7.04v15.84l-78.54-16.72V34.978z
			 M25.759,73.257l12.979,2.75v28.05l18.48,3.96V81.617l12.979,2.75v26.399l21.12,4.511v-29.15l12.98,2.75v44.99l-78.54-16.72
			V73.257z M25.759,143.438l78.54-4.07v16.5l-16.61,0.11v20.899l16.61,7.15v16.5l-78.54-37.51V143.438z M25.759,223.626l30.029,6.38
			v-18.479l-30.029-6.38v-15.841l78.54,16.721v15.84l-34.87-7.37v18.48l34.87,7.37v15.84l-78.54-16.72V223.626z M65.028,742.599
			c-23.87-5.06-40.81-11.66-40.81-35.421c0-22.66,16.609-20.789,28.05-18.369v15.84c-11.44-2.42-16.39-1.1-16.39,6.05
			c0,8.03,8.029,11.55,30.25,16.28c23.76,5.061,28.05,2.641,28.05-4.18c0-5.721-2.97-10.451-19.91-14.08v-15.84
			c16.94,3.629,31.57,10.89,31.57,31.68C105.839,748.318,88.898,747.658,65.028,742.599z M25.759,523.811V509.29l78.54,16.72v18.041
			l-55,7.699v0.221l55,11.66v14.52l-78.54-16.721v-18.26l53.79-7.699v-0.221L25.759,523.811z M104.299,583.65v16.5l-16.61,0.109
			v20.9l16.61,7.15v16.5L25.759,607.3v-19.58L104.299,583.65z M91.318,671.65V643.6l12.98,2.75v43.891l-78.54-16.721v-15.84
			L91.318,671.65z M65.028,508.301c-23.87-5.06-40.81-11.66-40.81-35.42c0-22.66,16.609-20.79,28.05-18.37v15.84
			c-11.44-2.42-16.39-1.1-16.39,6.051c0,8.029,8.029,11.55,30.25,16.279c23.76,5.061,28.05,2.641,28.05-4.18
			c0-5.72-2.97-10.45-19.91-14.08v-15.84c16.94,3.63,31.57,10.89,31.57,31.68C105.839,514.021,88.898,513.361,65.028,508.301z
			 M25.759,405.012v-17.16l47.63,30.471l30.91,6.6v15.841l-30.91-6.601l-47.63,10.23v-17.82l30.359-3.85v-0.221L25.759,405.012z
			 M82.959,370.915l-3.19-0.66v-15.84l2.311,0.439c7.37,1.54,12.1,0.44,12.1-7.92c0-4.84-3.08-10.12-9.68-11.44
			c-7.15-1.54-9.79,1.54-13.42,11.221c-4.841,12.979-10.671,18.26-23.761,15.51c-15.29-3.3-23.1-14.3-23.1-29.26
			c0-14.08,6.05-22.99,21.12-19.801l2.199,0.44v15.18c-7.369-1.54-11.659,0.11-11.659,6.16c0,7.15,4.51,10.01,9.13,10.891
			c4.84,1.1,7.81,0.329,10.67-5.83l5.28-11.11c5.17-10.78,11.22-12.54,20.79-10.561c16.609,3.631,24.09,15.29,24.09,32.45
			C105.839,368.715,97.479,373.995,82.959,370.915z M65.028,308.546c-23.87-5.061-40.81-11.66-40.81-35.42
			c0-22.66,16.609-20.79,28.05-18.37v15.84c-11.44-2.42-16.39-1.101-16.39,6.05c0,8.03,8.029,11.55,30.25,16.28
			c23.76,5.06,28.05,2.64,28.05-4.18c0-5.721-2.97-10.45-19.91-14.08v-15.841c16.94,3.63,31.57,10.891,31.57,31.681
			C105.839,314.266,88.898,313.605,65.028,308.546z"/>
	</g>
</g>
<g id="Guides">
</g>
</svg>
