<svg xmlns="http://www.w3.org/2000/svg" version="1.1" x="0" y="0" width="97" height="97" viewBox="0 0 97 97" enable-background="new 0 0 97 97" xml:space="preserve" class="loading-icon">
    <g opacity="0.5">
        <path fill="#FFFFFF" d="M90.5 37.2c6.2 23.2-7.5 47.1-30.7 53.3S12.8 83 6.5 59.8C0.3 36.6 14 12.8 37.2 6.5 60.4 0.3 84.3 14 90.5 37.2" />
    </g>
    <g opacity="0.2">
        <path fill="#010101" d="M48.5 97c-21.9 0-41.1-14.8-46.8-35.9C-5.3 35.3 10.1 8.6 35.9 1.7 40 0.6 44.3 0 48.5 0 70.4 0 89.6 14.8 95.3 35.9c7 25.8-8.4 52.5-34.2 59.4C57 96.5 52.7 97 48.5 97M48.5 1.9c-4.1 0-8.2 0.5-12.1 1.6C11.6 10.2-3.2 35.8 3.5 60.6c5.5 20.3 24 34.5 45 34.5 4.1 0 8.2-0.5 12.1-1.6 24.8-6.7 39.5-32.3 32.9-57.1C88 16.1 69.5 1.9 48.5 1.9" />
    </g>
    <g opacity="0.3">
        <rect x="26.5" y="26" transform="matrix(6.436864e-004 1 -1 6.436864e-004 75.4554 -21.4883)" fill="#231F20" width="44" height="2" />
        <animateTransform id="loadHand" attributeName="transform"
            type="rotate"
            from="0 48.5 48.5" to="360 48.5 48.5"
            begin="0" dur="10s"
            repeatCount="indefinite"
        />
    </g>
</svg>